<?xml version="1.0" encoding="utf-8"?>
<!-- Generator: Adobe Illustrator 19.1.0, SVG Export Plug-In . SVG Version: 6.00 Build 0)  -->
<svg version="1.1" id="Layer_1" xmlns="http://www.w3.org/2000/svg" xmlns:xlink="http://www.w3.org/1999/xlink" x="0px" y="0px"
	 viewBox="228 32 117 92" style="enable-background:new 228 32 117 92;" xml:space="preserve">
<style type="text/css">
	.st0{fill:url(#SVGID_1_);}
	.st1{fill:url(#SVGID_2_);}
	.st2{fill:url(#SVGID_3_);}
	.st3{fill:url(#SVGID_4_);}
	.st4{fill:url(#SVGID_5_);}
	.st5{fill:url(#SVGID_6_);}
</style>
<title>Slice 1</title>
<g>
	
		<radialGradient id="SVGID_1_" cx="213.6784" cy="133.0999" r="96.027" gradientTransform="matrix(0.8531 0 0 -1.1722 130.9786 182.6638)" gradientUnits="userSpaceOnUse">
		<stop  offset="0" style="stop-color:#727272"/>
		<stop  offset="1" style="stop-color:#5F5F5F"/>
	</radialGradient>
	<path class="st0" d="M329.6,98.2c1.2,2,1.2,5.1,0.2,7.2L344,81.8c1.3-2.1,1.3-5.6,0-7.7l-23-38.3c-1.3-2.1-4.3-3.8-6.8-3.8h-20
		c-2.5,0-3.4,1.7-2.2,3.8l14.3,23.8c0.1,0.1,0.2,0.2,0.3,0.3L329.6,98.2L329.6,98.2z"/>
	
		<radialGradient id="SVGID_2_" cx="225.4657" cy="86.8244" r="68.675" gradientTransform="matrix(0.8848 0 0 -1.1302 116.5234 176.1173)" gradientUnits="userSpaceOnUse">
		<stop  offset="0" style="stop-color:#CECECE"/>
		<stop  offset="1" style="stop-color:#C3C3C3"/>
	</radialGradient>
	<path class="st1" d="M294.2,123.9h20c2.5,0,5.5-1.7,6.8-3.8l8.8-14.6c1-2.1,1-5.3-0.2-7.2l-14.6-24.2c1.3,2.1,1.3,5.6,0,7.7
		l-14.2,23.7c-0.1,0.2-0.1,0.3-0.2,0.5l-8.7,14.5C291,122.4,291.9,123.9,294.2,123.9L294.2,123.9z"/>
	
		<linearGradient id="SVGID_3_" gradientUnits="userSpaceOnUse" x1="228.2472" y1="82.9931" x2="196.3612" y2="82.9931" gradientTransform="matrix(0.8113 0 0 -1.2326 150.0531 192.0846)">
		<stop  offset="0" style="stop-color:#202020;stop-opacity:0.2"/>
		<stop  offset="1" style="stop-color:#F2F2F2;stop-opacity:0.25"/>
	</linearGradient>
	<path class="st2" d="M329.6,98.2l-14.6-24.2c1.3,2.1,1.3,5.6,0,7.7l-5.1,8.6l19.9,15.1C330.9,103.3,330.8,100.2,329.6,98.2z"/>
	<g>
		
			<radialGradient id="SVGID_4_" cx="225.9682" cy="45.5796" r="96.022" gradientTransform="matrix(0.8532 0 0 -1.1721 66.9492 182.6482)" gradientUnits="userSpaceOnUse">
			<stop  offset="0" style="stop-color:#808080"/>
			<stop  offset="1" style="stop-color:#7C7C7C"/>
		</radialGradient>
		<path class="st3" d="M243.4,57.6c-1.2-2-1.2-5.1-0.2-7.2L229,74.1c-1.3,2.1-1.3,5.6,0,7.7l23,38.3c1.3,2.1,4.3,3.8,6.8,3.8h20
			c2.5,0,3.5-1.7,2.2-3.8l-14.3-23.8c-0.1-0.1-0.2-0.2-0.3-0.3L243.4,57.6L243.4,57.6z"/>
		
			<radialGradient id="SVGID_5_" cx="231.0907" cy="86.9179" r="68.678" gradientTransform="matrix(0.8848 0 0 -1.1302 52.5214 176.1204)" gradientUnits="userSpaceOnUse">
			<stop  offset="0" style="stop-color:#767676"/>
			<stop  offset="1" style="stop-color:#636363"/>
		</radialGradient>
		<path class="st4" d="M278.8,32h-20c-2.5,0-5.5,1.7-6.8,3.8l-8.8,14.6c-1,2.1-1,5.2,0.2,7.2L258,81.8c-1.3-2.1-1.3-5.6,0-7.7
			l14.2-23.7c0.1-0.2,0.1-0.3,0.2-0.5l8.7-14.5C282,33.5,281.1,32,278.8,32L278.8,32z"/>
		
			<linearGradient id="SVGID_6_" gradientUnits="userSpaceOnUse" x1="187.0405" y1="102.2138" x2="218.9276" y2="102.2138" gradientTransform="matrix(0.8113 0 0 -1.2326 86.0374 192.0737)">
			<stop  offset="0" style="stop-color:#202020;stop-opacity:0.2"/>
			<stop  offset="1" style="stop-color:#F2F2F2;stop-opacity:0.25"/>
		</linearGradient>
		<path class="st5" d="M243.4,57.6L258,81.8c-1.3-2.1-1.3-5.6,0-7.7l5.1-8.6l-19.9-15.1C242.1,52.5,242.2,55.6,243.4,57.6z"/>
	</g>
</g>
</svg>
